<?xml version="1.0" standalone="no"?>
<!DOCTYPE svg PUBLIC "-//W3C//DTD SVG 20010904//EN"
 "http://www.w3.org/TR/2001/REC-SVG-20010904/DTD/svg10.dtd">
<svg version="1.0" xmlns="http://www.w3.org/2000/svg"
 width="500.000000pt" height="500.000000pt" viewBox="0 0 500.000000 500.000000"
 preserveAspectRatio="xMidYMid meet">

<g transform="translate(0.000000,500.000000) scale(0.100000,-0.100000)"
fill="#000000" stroke="none">
<path d="M0 2500 l0 -2500 2500 0 2500 0 0 2500 0 2500 -2500 0 -2500 0 0
-2500z m938 436 c-8 -7 -24 -17 -36 -20 -12 -4 -20 -12 -17 -17 4 -5 2 -9 -4
-9 -5 0 -21 -19 -35 -42 -24 -40 -24 -43 -8 -63 16 -19 16 -19 0 -6 -16 12
-22 9 -19 -11 0 -5 -6 -8 -15 -8 -10 0 -7 -8 13 -26 15 -15 20 -21 11 -15 -15
11 -17 8 -16 -21 0 -18 8 -42 17 -53 15 -19 15 -19 -2 -6 -17 13 -18 12 -13
-15 2 -16 5 -33 5 -39 1 -6 4 -5 9 1 19 30 94 55 175 58 94 5 187 -10 187 -30
0 -7 4 -16 10 -19 6 -4 7 1 4 12 -5 16 -4 16 8 3 7 -8 19 -16 27 -18 7 -1 19
-9 27 -17 12 -12 12 -15 -3 -24 -10 -6 -13 -11 -6 -11 6 0 19 7 27 16 15 14
16 14 16 0 0 -9 -5 -16 -12 -16 -6 0 -8 -3 -4 -7 4 -5 14 0 21 10 12 17 15 15
44 -20 59 -71 101 -189 101 -281 0 -43 -14 -73 -23 -49 -3 8 -1 19 5 25 7 7 6
17 -2 32 -8 15 -8 20 -1 16 8 -5 8 0 0 18 -10 22 -15 24 -28 13 -14 -10 -14
-10 -3 4 16 21 5 52 -16 44 -12 -4 -13 -3 -2 10 9 10 9 15 1 15 -6 0 -24 13
-41 28 -39 38 -115 76 -131 67 -8 -5 -10 -4 -5 3 5 8 -2 12 -21 11 -17 -1 -21
-3 -10 -6 20 -5 21 -16 5 -44 -10 -17 -10 -23 0 -26 18 -7 15 -21 -17 -90 -16
-34 -27 -64 -24 -67 4 -3 1 -6 -6 -6 -7 0 -9 -4 -6 -10 3 -5 1 -10 -5 -10 -6
0 -8 -5 -4 -12 4 -7 3 -8 -4 -4 -11 7 -35 -26 -27 -38 3 -3 2 -4 -2 -1 -3 3
-15 -2 -25 -11 -13 -13 -21 -14 -31 -5 -14 11 -27 5 -27 -13 0 -6 5 -4 10 4 5
8 10 10 10 4 0 -6 -7 -17 -15 -24 -13 -11 -15 -8 -16 16 -2 27 -2 27 -8 -5
-10 -59 -53 -76 -186 -76 -98 0 -116 3 -165 26 -30 14 -66 35 -79 46 -21 17
-22 20 -7 26 10 4 15 3 11 -3 -6 -9 7 -14 27 -11 4 0 5 -5 2 -12 -3 -8 1 -14
8 -15 21 -1 71 -13 80 -18 4 -3 8 1 8 8 0 9 3 9 10 -2 8 -12 10 -12 10 5 1 18
2 17 15 -5 10 -17 14 -20 15 -9 0 10 12 20 28 24 15 3 44 17 64 31 21 13 40
24 43 24 3 0 17 10 31 23 l25 23 -51 23 c-27 12 -50 26 -50 30 0 3 -13 21 -30
39 -16 18 -30 35 -30 37 -1 15 -44 93 -49 90 -4 -2 -6 18 -6 43 1 26 -4 53 -9
61 -8 11 -8 13 2 7 7 -4 12 -2 12 4 0 7 7 10 18 6 14 -5 14 -4 -2 9 -11 8 -23
15 -28 15 -21 0 1 121 33 182 26 50 85 113 142 149 60 39 90 51 65 25z m107
-36 c10 -11 16 -20 13 -20 -3 0 -13 9 -23 20 -10 11 -16 20 -13 20 3 0 13 -9
23 -20z m-25 -15 c13 -14 21 -25 18 -25 -2 0 -15 11 -28 25 -13 14 -21 25 -18
25 2 0 15 -11 28 -25z m-24 -17 l29 -33 -32 29 c-18 17 -33 31 -33 33 0 8 8 1
36 -29z m-55 -65 c13 -16 12 -17 -3 -4 -10 7 -18 15 -18 17 0 8 8 3 21 -13z
m206 -135 c-3 -8 -6 -5 -6 6 -1 11 2 17 5 13 3 -3 4 -12 1 -19z m723 -272 c0
-11 -15 -16 -52 -18 -51 -3 -53 -4 -53 -33 0 -29 2 -30 48 -33 33 -2 47 -7 47
-18 0 -10 -13 -14 -50 -14 l-50 0 0 -45 c0 -33 -4 -45 -15 -45 -12 0 -15 19
-15 110 l0 110 70 0 c54 0 70 -3 70 -14z m200 -96 c0 -103 -1 -110 -20 -110
-19 0 -20 7 -20 110 0 103 1 110 20 110 19 0 20 -7 20 -110z m330 95 c0 -10
-11 -15 -35 -15 l-35 0 0 -95 c0 -88 -1 -95 -20 -95 -19 0 -20 7 -20 95 l0 95
-35 0 c-24 0 -35 5 -35 15 0 12 17 15 90 15 73 0 90 -3 90 -15z m196 -75 l33
-85 14 35 c8 19 23 59 33 88 13 36 24 52 36 52 10 0 18 -3 18 -7 0 -5 -19 -54
-41 -111 -36 -88 -45 -103 -62 -100 -21 3 -25 12 -88 171 l-19 48 21 -3 c17
-2 29 -21 55 -88z m454 75 c0 -12 -13 -15 -60 -15 l-60 0 0 -30 c0 -29 1 -30
50 -30 43 0 50 -3 50 -20 0 -17 -7 -20 -50 -20 -49 0 -50 -1 -50 -30 l0 -30
60 0 c47 0 60 -3 60 -15 0 -12 -16 -15 -80 -15 l-80 0 0 110 0 110 80 0 c64 0
80 -3 80 -15z m320 -5 c30 -30 30 -85 0 -111 -18 -16 -18 -17 6 -53 l25 -36
-23 0 c-15 0 -31 12 -46 36 -18 28 -28 35 -50 32 -22 -2 -28 -9 -30 -35 -2
-21 -9 -33 -18 -33 -11 0 -14 21 -14 110 l0 110 65 0 c52 0 69 -4 85 -20z
m318 14 c13 -4 22 -14 22 -26 0 -16 -5 -19 -22 -14 -54 15 -64 16 -77 7 -23
-15 -5 -39 39 -52 68 -20 89 -70 48 -109 -19 -18 -32 -21 -71 -17 -54 5 -89
29 -69 49 8 8 15 8 26 -1 19 -16 74 -17 88 -3 15 15 -4 38 -40 47 -48 11 -72
33 -72 65 0 49 57 73 128 54z m352 -9 c0 -12 -13 -15 -60 -15 l-60 0 0 -30 c0
-30 1 -30 55 -30 48 0 55 -2 55 -20 0 -18 -7 -20 -55 -20 -54 0 -55 0 -55 -30
l0 -30 65 0 c51 0 65 -3 65 -15 0 -12 -16 -15 -85 -15 l-85 0 0 110 0 110 80
0 c64 0 80 -3 80 -15z m-3310 1 c0 -2 -8 -10 -17 -17 -16 -13 -17 -12 -4 4 13
16 21 21 21 13z m-50 -39 c0 -2 -10 -12 -22 -23 l-23 -19 19 23 c18 21 26 27
26 19z m0 -41 c0 -2 -8 -10 -17 -17 -16 -13 -17 -12 -4 4 13 16 21 21 21 13z
m740 -30 c0 -2 -8 -10 -17 -17 -16 -13 -17 -12 -4 4 13 16 21 21 21 13z m-762
-51 c-6 -14 -13 -23 -15 -21 -5 5 15 46 22 46 3 0 -1 -11 -7 -25z m-51 -87
c-3 -8 -6 -5 -6 6 -1 11 2 17 5 13 3 -3 4 -12 1 -19z m817 13 c3 -4 -4 -17
-17 -27 -22 -19 -22 -19 -4 2 9 11 14 24 10 27 -3 4 -4 7 0 7 3 0 8 -4 11 -9z"/>
<path d="M778 2793 c7 -3 16 -2 19 1 4 3 -2 6 -13 5 -11 0 -14 -3 -6 -6z"/>
<path d="M734 2723 c3 -4 0 -13 -6 -22 -10 -12 -8 -12 8 1 14 12 24 15 32 8 9
-7 9 -7 2 2 -5 6 -17 13 -26 14 -9 1 -13 0 -10 -3z"/>
<path d="M701 2627 c2 -1 13 -9 24 -17 19 -14 19 -14 6 3 -7 9 -18 17 -24 17
-6 0 -8 -1 -6 -3z"/>
<path d="M1000 2582 l5 -47 3 39 c2 21 0 42 -5 47 -4 4 -6 -13 -3 -39z"/>
<path d="M911 2615 c1 -19 18 -51 18 -35 0 8 -4 22 -9 30 -5 8 -9 11 -9 5z"/>
<path d="M936 2607 c3 -10 9 -15 12 -12 3 3 0 11 -7 18 -10 9 -11 8 -5 -6z"/>
<path d="M970 2611 c0 -5 5 -13 10 -16 6 -3 10 -2 10 4 0 5 -4 13 -10 16 -5 3
-10 2 -10 -4z"/>
<path d="M1040 2609 c0 -5 -4 -7 -10 -4 -6 4 -10 -9 -9 -32 1 -38 1 -38 9 -8
l8 30 1 -31 c1 -23 7 -33 21 -37 11 -3 20 -1 20 4 0 5 -7 9 -15 9 -11 0 -15
11 -15 36 0 24 4 33 12 28 7 -4 8 -3 4 4 -9 15 -26 16 -26 1z"/>
<path d="M1160 2600 c6 -11 16 -20 23 -19 9 0 9 2 0 6 -7 2 -13 11 -13 19 0 8
-5 14 -10 14 -7 0 -7 -6 0 -20z"/>
<path d="M700 2606 c0 -2 8 -10 18 -17 15 -13 16 -12 3 4 -13 16 -21 21 -21
13z"/>
<path d="M1080 2583 c0 -15 2 -16 10 -3 8 13 10 12 10 -4 0 -13 -5 -17 -20
-13 -11 3 -20 1 -20 -4 0 -5 6 -9 14 -9 8 0 17 -8 19 -17 4 -17 5 -17 6 0 1
11 6 15 13 11 7 -4 8 -3 4 4 -4 7 -2 12 3 12 6 0 11 -7 11 -15 0 -8 -5 -15
-11 -15 -6 0 -4 -7 5 -15 20 -21 26 -19 26 8 0 12 -13 34 -29 50 -34 32 -41
33 -41 10z"/>
<path d="M1215 2580 c-16 -7 -17 -9 -3 -9 9 -1 20 4 23 9 7 11 7 11 -20 0z"/>
<path d="M976 2565 c-3 -9 -6 -24 -5 -33 0 -9 5 -4 10 12 9 32 6 48 -5 21z"/>
<path d="M714 2515 c1 -14 5 -25 9 -25 4 0 10 0 13 0 4 0 1 7 -6 15 -9 11 -9
15 -1 15 7 0 9 5 6 10 -11 18 -22 10 -21 -15z"/>
<path d="M790 2520 c0 -5 0 -13 1 -16 0 -4 -5 -11 -13 -16 -10 -8 -9 -9 4 -4
10 3 20 1 23 -4 6 -9 -8 -14 -27 -11 -5 0 -8 -3 -8 -9 0 -10 12 -13 41 -11 9
1 16 -5 16 -14 0 -10 -6 -13 -19 -9 -13 4 -18 1 -16 -8 1 -7 -2 -13 -7 -13 -6
0 -9 8 -9 18 2 20 -9 14 -12 -8 -1 -8 4 -19 12 -26 8 -6 11 -16 7 -23 -3 -6 0
-6 8 2 21 19 34 14 15 -7 -10 -11 -13 -22 -8 -25 15 -9 61 32 58 52 -2 9 1 20
6 23 6 4 6 9 -1 13 -6 4 -11 2 -11 -3 0 -6 -4 -11 -8 -11 -13 0 -10 30 2 30 6
1 2 6 -9 13 -22 13 -31 37 -14 37 8 0 7 6 -2 17 -10 11 -10 14 -1 9 6 -4 12
-2 12 3 0 6 -9 11 -20 11 -11 0 -20 -4 -20 -10z m56 -138 c-2 -8 -14 -22 -27
-30 l-24 -14 22 20 c19 17 20 21 7 26 -9 3 -21 3 -27 0 -7 -3 -4 1 6 10 22 17
46 11 43 -12z"/>
<path d="M1291 2509 c-13 -10 -19 -19 -15 -19 13 1 48 29 43 34 -2 2 -15 -4
-28 -15z"/>
<path d="M1325 2500 c-3 -5 -1 -10 4 -10 6 0 11 5 11 10 0 6 -2 10 -4 10 -3 0
-8 -4 -11 -10z"/>
<path d="M1139 2403 c-1 -5 -1 -11 0 -15 0 -5 -7 -8 -16 -8 -14 0 -15 -2 -5
-9 10 -6 8 -10 -10 -15 -20 -6 -21 -8 -7 -19 9 -6 16 -16 17 -22 0 -5 6 -11
12 -13 16 -6 -5 34 -22 42 -7 4 3 4 22 1 25 -4 31 -2 20 5 -13 9 -13 10 0 10
12 0 12 2 2 9 -8 4 -14 12 -14 16 0 4 6 12 14 16 10 7 10 9 1 9 -7 0 -14 -3
-14 -7z"/>
<path d="M835 2330 c-17 -19 -4 -23 23 -7 6 5 17 5 22 2 6 -3 10 -4 10 -1 0 3
-8 10 -19 15 -14 8 -22 6 -36 -9z"/>
<path d="M1062 2297 c-12 -7 -19 -16 -16 -20 12 -11 26 -8 18 5 -4 7 -3 8 4 4
7 -4 12 -3 12 3 0 6 7 7 17 4 11 -4 14 -3 9 5 -9 15 -15 15 -44 -1z"/>
<path d="M1020 2286 c0 -10 -5 -13 -17 -9 -17 7 -17 6 0 -11 18 -19 23 -31 8
-22 -5 4 -11 3 -14 -1 -2 -5 -3 -3 -1 3 1 7 -5 10 -17 7 -25 -7 -24 -20 3 -34
17 -9 23 -9 26 0 2 6 8 9 13 5 5 -3 9 0 9 6 0 6 5 8 10 5 6 -3 10 -1 10 5 0 6
4 9 9 6 13 -8 42 4 35 15 -3 5 0 9 7 9 7 0 10 3 7 6 -4 3 -16 0 -29 -7 -20
-10 -25 -9 -41 11 -14 17 -18 18 -18 6z"/>
<path d="M961 2153 c-2 -32 -12 -54 -22 -47 -5 3 -9 0 -9 -5 0 -16 30 -13 36
3 3 8 4 27 1 43 -3 20 -4 22 -6 6z"/>
<path d="M3257 2373 c-4 -3 -7 -24 -7 -45 0 -37 1 -38 38 -38 51 0 77 19 69
52 -7 25 -30 38 -73 38 -11 0 -24 -3 -27 -7z"/>
</g>
</svg>
