<?xml version="1.0" standalone="no"?>
<!DOCTYPE svg PUBLIC "-//W3C//DTD SVG 20010904//EN"
 "http://www.w3.org/TR/2001/REC-SVG-20010904/DTD/svg10.dtd">
<svg version="1.0" xmlns="http://www.w3.org/2000/svg"
 width="500.000000pt" height="500.000000pt" viewBox="0 0 500.000000 500.000000"
 preserveAspectRatio="xMidYMid meet">

<g transform="translate(0.000000,500.000000) scale(0.100000,-0.100000)"
fill="#000000" stroke="none">
<path d="M2180 2645 l0 -845 170 0 170 0 0 385 0 385 160 0 160 0 0 160 0 159
-157 3 -158 3 -3 133 -3 132 171 0 170 0 0 165 0 165 -340 0 -340 0 0 -845z"/>
<path d="M2979 1865 c-64 -35 -81 -137 -33 -194 53 -63 146 -63 199 0 20 24
25 41 25 82 -1 56 -13 79 -57 109 -33 21 -97 23 -134 3z"/>
</g>
</svg>
