<?xml version="1.0" standalone="no"?>
<!DOCTYPE svg PUBLIC "-//W3C//DTD SVG 20010904//EN"
 "http://www.w3.org/TR/2001/REC-SVG-20010904/DTD/svg10.dtd">
<svg version="1.0" xmlns="http://www.w3.org/2000/svg"
 width="500.000000pt" height="500.000000pt" viewBox="0 0 500.000000 500.000000"
 preserveAspectRatio="xMidYMid meet">

<g transform="translate(0.000000,500.000000) scale(0.100000,-0.100000)"
fill="#000000" stroke="none">
<path d="M944 2292 c-98 -71 -179 -216 -131 -235 6 -3 3 -6 -8 -6 -17 -1 -17
-3 -5 -11 13 -8 13 -10 1 -10 -11 0 -10 -4 5 -16 10 -8 14 -13 8 -10 -15 7
-10 -83 5 -113 7 -11 10 -21 7 -21 -2 0 5 -11 17 -24 24 -27 46 -24 25 2 -12
15 -11 16 5 3 11 -9 17 -10 17 -2 0 6 0 14 0 19 0 4 -4 8 -10 8 -5 1 -13 3
-17 4 -5 1 -11 2 -15 1 -4 0 1 15 12 34 11 19 17 35 14 35 -4 0 -1 7 6 15 16
19 34 19 27 0 -4 -8 -2 -17 4 -21 7 -4 7 -10 0 -18 -7 -8 -4 -16 10 -25 12 -7
18 -15 15 -18 -3 -4 0 -13 7 -22 11 -14 10 -14 -6 -2 -14 11 -20 12 -30 2 -9
-10 -9 -12 2 -9 7 2 15 -5 16 -14 2 -10 -2 -16 -8 -15 -7 1 -11 -4 -9 -11 1
-8 -2 -11 -8 -7 -8 5 -7 11 1 21 7 8 7 14 1 14 -5 0 -15 -7 -22 -15 -10 -12
-10 -18 1 -32 20 -26 53 -57 64 -61 36 -13 37 -20 3 -46 -19 -14 -49 -31 -66
-37 -17 -6 -33 -18 -35 -27 -4 -13 -5 -13 -6 3 -1 16 -3 17 -11 5 -12 -19 -72
-14 -124 11 -41 20 -41 20 -18 0 36 -31 127 -61 186 -61 85 0 114 9 133 42 15
24 18 26 24 11 6 -16 8 -15 17 7 5 14 12 24 16 23 19 -8 38 -1 33 11 -4 10 -1
13 8 10 7 -3 21 7 31 25 10 17 22 31 26 31 4 0 7 3 6 8 0 4 8 27 19 51 14 28
20 61 20 92 -1 27 -1 49 -1 49 1 0 22 -9 48 -21 43 -18 162 -119 142 -119 -5
0 -3 -7 4 -15 6 -8 9 -19 6 -24 -4 -5 -2 -12 4 -16 17 -11 11 71 -10 127 -21
56 -68 121 -101 138 -27 15 -24 6 12 -29 17 -17 26 -31 19 -31 -6 0 -13 6 -16
14 -3 8 -15 12 -27 10 -12 -2 -17 -2 -10 2 9 4 9 11 1 29 -9 20 -14 22 -31 14
-15 -9 -18 -8 -12 2 6 9 3 11 -8 6 -9 -3 -16 -3 -16 1 4 22 -4 31 -33 38 -37
9 -208 12 -203 4 2 -3 -15 -16 -37 -29 l-40 -23 3 29 c2 15 1 33 -3 38 -6 11
-3 76 6 113 8 37 40 82 72 103 16 10 24 19 18 19 -6 0 -29 -13 -50 -28z m-89
-182 c3 -6 -1 -7 -9 -4 -18 7 -21 14 -7 14 6 0 13 -4 16 -10z m210 -61 c-4 -5
1 -19 10 -29 11 -12 13 -20 6 -25 -6 -3 -11 1 -11 10 0 9 -4 13 -10 10 -11 -7
-14 28 -3 38 10 11 15 8 8 -4z m36 -3 c5 3 9 -6 9 -20 0 -14 5 -28 10 -31 7
-4 8 3 4 20 l-6 26 32 -29 c34 -32 34 -60 0 -42 -11 6 -25 9 -32 8 -7 -2 -14
8 -16 22 -2 14 -8 29 -13 35 -5 5 -9 14 -8 20 0 5 3 4 6 -3 2 -6 9 -10 14 -6z
m-79 -48 c-8 -8 -9 -4 -5 13 4 13 8 18 11 10 2 -7 -1 -18 -6 -23z m25 -20 c-3
-8 -6 -5 -6 6 -1 11 2 17 5 13 3 -3 4 -12 1 -19z m-221 -13 c1 -8 -1 -17 -5
-19 -4 -3 -7 6 -7 19 0 25 8 25 12 0z m374 -82 c0 -10 -4 -14 -8 -8 -4 6 -11
13 -16 18 -5 4 -2 7 7 7 10 0 17 -8 17 -17z m-25 -43 c-27 -12 -43 -12 -25 0
8 5 22 9 30 9 10 0 8 -3 -5 -9z m-25 -31 c-12 -8 -10 -10 10 -5 24 5 24 4 6
-9 -31 -23 -39 -16 -27 23 1 1 7 2 14 2 8 0 7 -4 -3 -11z m-20 -44 c0 -6 -9
-16 -20 -23 -11 -7 -19 -9 -18 -5 1 5 -4 18 -11 31 -12 22 -11 23 9 12 11 -6
17 -16 14 -22 -4 -7 -2 -8 5 -4 8 6 9 12 2 20 -6 7 -8 16 -4 20 7 7 23 -13 23
-29z m-190 19 c0 -8 -19 -13 -24 -6 -3 5 1 9 9 9 8 0 15 -2 15 -3z m140 -51
c0 -8 -5 -11 -10 -8 -6 4 -8 10 -5 15 3 5 1 11 -4 15 -6 3 -8 -4 -6 -15 3 -15
0 -20 -12 -18 -9 2 -18 9 -21 17 -3 8 0 11 6 7 5 -3 13 1 16 10 5 13 9 14 21
4 8 -7 15 -19 15 -27z"/>
<path d="M960 2206 c0 -2 8 -10 18 -17 15 -13 16 -12 3 4 -13 16 -21 21 -21
13z"/>
<path d="M883 1953 c4 -6 3 -14 -3 -18 -17 -11 -11 -39 11 -53 16 -10 19 -10
13 -1 -5 9 -2 11 12 6 19 -7 19 -7 0 8 -10 8 -24 11 -30 8 -6 -4 -3 3 7 14 17
19 17 21 0 34 -9 8 -14 9 -10 2z"/>
<path d="M1540 1800 c0 -73 3 -90 15 -90 11 0 15 11 15 40 l0 40 40 0 c22 0
40 5 40 10 0 6 -18 10 -40 10 -38 0 -40 2 -40 30 0 29 2 30 45 30 25 0 45 5
45 10 0 6 -27 10 -60 10 l-60 0 0 -90z"/>
<path d="M1800 1800 c0 -53 4 -90 10 -90 6 0 10 37 10 90 0 53 -4 90 -10 90
-6 0 -10 -37 -10 -90z"/>
<path d="M1960 1880 c0 -5 11 -10 25 -10 25 0 25 -1 25 -80 0 -64 3 -80 15
-80 12 0 15 16 15 80 l0 80 30 0 c17 0 30 5 30 10 0 6 -30 10 -70 10 -40 0
-70 -4 -70 -10z"/>
<path d="M2210 1887 c0 -20 72 -173 82 -175 8 -1 27 31 50 88 24 60 32 90 24
90 -7 0 -25 -32 -40 -70 -15 -39 -31 -68 -36 -65 -5 3 -19 34 -32 70 -12 36
-28 65 -35 65 -7 0 -13 -1 -13 -3z"/>
<path d="M2510 1800 l0 -90 65 0 c37 0 65 4 65 10 0 6 -22 10 -50 10 -49 0
-50 1 -50 30 0 29 2 30 45 30 25 0 45 5 45 10 0 6 -20 10 -45 10 -43 0 -45 1
-45 30 0 29 1 30 50 30 28 0 50 5 50 10 0 6 -28 10 -65 10 l-65 0 0 -90z"/>
<path d="M2780 1800 c0 -73 3 -90 15 -90 10 0 15 10 15 30 0 26 4 30 28 30 20
0 32 -8 45 -30 10 -16 25 -30 33 -30 12 0 11 6 -6 31 -21 29 -21 31 -4 43 24
18 23 75 -1 92 -10 8 -43 14 -72 14 l-53 0 0 -90z m108 58 c17 -17 15 -55 -4
-62 -9 -3 -29 -6 -45 -6 -27 0 -29 2 -29 40 0 39 1 40 33 40 18 0 38 -5 45
-12z"/>
<path d="M3086 1877 c-11 -8 -17 -22 -14 -37 3 -23 10 -29 63 -52 50 -22 39
-43 -22 -42 -62 2 -69 -10 -15 -26 55 -17 92 0 92 40 0 27 -6 33 -46 50 -33
15 -44 25 -42 37 3 14 12 17 46 15 23 -1 42 2 42 7 0 23 -76 29 -104 8z"/>
<path d="M3340 1800 l0 -90 60 0 c71 0 81 18 13 22 -44 3 -48 5 -51 31 -3 26
-2 27 42 27 25 0 46 5 46 10 0 6 -20 10 -45 10 -43 0 -45 1 -45 30 0 29 1 30
50 30 28 0 50 5 50 10 0 6 -27 10 -60 10 l-60 0 0 -90z"/>
<path d="M1412 1710 c0 -14 2 -19 5 -12 2 6 2 18 0 25 -3 6 -5 1 -5 -13z"/>
</g>
</svg>
