<?xml version="1.0" standalone="no"?>
<!DOCTYPE svg PUBLIC "-//W3C//DTD SVG 20010904//EN"
 "http://www.w3.org/TR/2001/REC-SVG-20010904/DTD/svg10.dtd">
<svg version="1.0" xmlns="http://www.w3.org/2000/svg"
 width="500.000000pt" height="500.000000pt" viewBox="0 0 500.000000 500.000000"
 preserveAspectRatio="xMidYMid meet">

<g transform="translate(0.000000,500.000000) scale(0.100000,-0.100000)"
fill="#000000" stroke="none">
<path d="M842 2888 c-23 -18 -56 -53 -74 -78 -31 -42 -31 -43 -7 -25 15 11 25
23 22 28 -2 4 6 7 19 7 18 0 20 2 8 10 -11 7 -11 10 -2 10 7 0 10 5 7 10 -3 6
4 10 16 10 12 0 20 3 16 6 -3 3 6 17 21 30 40 35 21 29 -26 -8z"/>
<path d="M790 2776 c0 -2 7 -7 16 -10 8 -3 12 -2 9 4 -6 10 -25 14 -25 6z"/>
<path d="M783 2749 c9 -5 18 -22 18 -37 2 -24 2 -25 6 -4 5 24 -12 52 -31 52
-6 0 -3 -5 7 -11z"/>
<path d="M728 2733 c6 -2 18 -2 25 0 6 3 1 5 -13 5 -14 0 -19 -2 -12 -5z"/>
<path d="M775 2720 c3 -5 8 -10 11 -10 2 0 4 5 4 10 0 6 -5 10 -11 10 -5 0 -7
-4 -4 -10z"/>
<path d="M786 2678 c5 -8 0 -9 -15 -5 -22 5 -22 5 -6 -14 14 -15 15 -22 6 -33
-7 -8 -10 -20 -7 -25 4 -5 2 -12 -4 -16 -6 -4 -7 -12 -3 -18 11 -17 12 -37 3
-37 -4 0 -11 -7 -14 -16 -3 -8 -2 -13 2 -10 4 2 7 -9 7 -24 1 -16 -3 -26 -7
-24 -5 3 -6 9 -3 13 2 5 -6 18 -19 30 -17 16 -23 18 -23 7 0 -8 3 -15 6 -14
18 2 22 -4 12 -16 -10 -11 -10 -20 -1 -36 11 -21 12 -21 31 -4 10 9 19 25 19
36 0 10 4 18 10 18 5 0 7 6 4 14 -3 8 3 19 15 25 27 15 33 14 30 -6 -4 -27 30
-85 44 -76 7 4 5 -2 -3 -12 -14 -17 -14 -18 7 -7 16 9 24 9 29 0 4 -6 3 -8 -4
-4 -6 3 -14 1 -18 -5 -8 -14 14 -29 35 -22 14 4 14 3 1 -9 -9 -7 -15 -22 -15
-33 0 -11 -6 -20 -12 -20 -7 0 -13 -3 -13 -7 0 -5 0 -11 0 -14 0 -4 7 -1 15 6
11 9 15 9 15 1 0 -7 5 -9 11 -5 6 3 3 -5 -6 -20 -11 -16 -13 -26 -6 -26 9 0 9
-6 0 -22 -12 -22 -11 -22 6 -8 17 14 18 13 12 -3 -4 -10 -7 -22 -7 -27 0 -5
-24 -23 -52 -42 -29 -18 -54 -41 -56 -50 -4 -25 7 -22 18 5 8 20 9 18 11 -13
l2 -35 7 35 7 35 11 -25 11 -25 1 25 c0 17 3 21 8 12 7 -9 15 -7 35 12 15 14
27 22 27 18 0 -4 5 0 10 8 8 12 10 12 10 -5 1 -18 2 -17 15 5 8 14 15 21 15
15 0 -5 5 -3 10 5 9 13 10 13 11 0 0 -10 3 -8 9 5 l9 20 1 -20 c1 -19 2 -18
10 3 10 22 45 32 37 10 -2 -7 -10 -12 -16 -10 -6 1 -11 -5 -11 -13 0 -8 3 -15
8 -15 9 0 78 107 87 135 l7 20 -13 -20 c-7 -11 -19 -26 -26 -33 -7 -7 -13 -18
-13 -23 0 -6 -4 -7 -10 -4 -6 4 -7 -1 -3 -12 6 -15 4 -16 -8 -6 -9 7 -20 9
-25 4 -19 -18 -81 -22 -93 -7 -14 17 -5 40 11 30 6 -4 8 -2 5 3 -8 13 40 66
53 58 6 -3 7 1 3 10 -4 12 -8 13 -13 5 -5 -8 -9 -7 -13 5 -4 9 -3 13 3 10 6
-3 10 -1 10 5 0 6 6 8 13 4 6 -4 9 -4 5 1 -4 4 -4 13 2 20 6 8 1 10 -18 9 -15
-1 -28 -3 -29 -4 -2 -1 -8 -3 -13 -4 -6 0 -15 -8 -20 -16 -6 -9 -10 -10 -10
-3 0 6 -9 10 -20 8 -11 -2 -18 0 -15 5 3 5 14 7 24 5 11 -2 27 5 36 15 13 15
22 17 36 10 20 -11 92 17 83 32 -5 7 17 12 38 9 4 0 4 7 1 16 -4 11 -3 14 5 9
7 -4 12 -1 12 7 0 19 55 8 106 -22 27 -16 39 -19 52 -10 15 9 15 10 0 5 -26
-8 -31 7 -6 21 21 12 21 12 -12 7 -26 -4 -31 -3 -20 5 13 9 13 11 0 11 -8 0
-27 11 -42 25 -15 14 -33 25 -39 25 -7 0 -9 3 -6 7 4 4 -7 13 -24 20 -23 9
-29 17 -25 29 6 15 4 15 -11 3 -15 -12 -16 -12 -10 4 3 9 2 17 -3 17 -17 0
-11 -24 14 -53 14 -17 22 -35 19 -47 -5 -20 -31 -20 -97 1 -28 9 -28 8 -23
-21 5 -22 2 -32 -12 -39 -10 -6 -21 -7 -25 -4 -9 10 -7 33 4 33 5 0 6 -8 3
-17 -6 -16 -5 -16 10 -5 19 16 13 38 -13 45 -12 3 -20 -2 -23 -14 -3 -11 -11
-19 -17 -19 -10 0 -10 3 0 15 13 15 8 19 -22 16 -10 -1 -18 3 -18 9 0 6 4 9 9
5 16 -9 20 9 5 23 -8 7 -14 8 -14 2 0 -22 -28 -8 -40 20 -13 32 -35 54 -23 24
4 -12 3 -15 -5 -10 -7 4 -12 3 -12 -3 0 -5 5 -13 10 -16 6 -3 10 -1 10 6 0 7
3 10 6 6 3 -3 3 -11 -1 -17 -5 -8 -15 -4 -31 11 -18 17 -24 33 -24 65 0 29 -5
44 -16 48 -10 4 -13 2 -8 -6z m-43 -242 c-3 -4 -9 -2 -14 5 -13 22 -11 31 5
17 8 -7 12 -17 9 -22z m314 -22 c-3 -3 -12 -4 -19 -1 -8 3 -5 6 6 6 11 1 17
-2 13 -5z"/>
<path d="M1055 2640 c-16 -7 -17 -9 -3 -9 9 -1 19 -7 21 -13 3 -7 6 -3 6 10 1
12 0 22 -1 21 -2 0 -12 -4 -23 -9z"/>
<path d="M1091 2634 c0 -11 3 -14 6 -6 3 7 2 16 -1 19 -3 4 -6 -2 -5 -13z"/>
<path d="M711 2637 c2 -1 13 -9 24 -17 19 -14 19 -14 6 3 -7 9 -18 17 -24 17
-6 0 -8 -1 -6 -3z"/>
<path d="M935 2630 c3 -5 8 -10 11 -10 2 0 4 5 4 10 0 6 -5 10 -11 10 -5 0 -7
-4 -4 -10z"/>
<path d="M1110 2636 c0 -2 9 -6 20 -9 11 -3 18 -1 14 4 -5 9 -34 13 -34 5z"/>
<path d="M916 2617 c3 -10 9 -15 12 -12 3 3 0 11 -7 18 -10 9 -11 8 -5 -6z"/>
<path d="M1225 2570 c-3 -6 1 -7 9 -4 18 7 21 14 7 14 -6 0 -13 -4 -16 -10z"/>
<path d="M1270 2510 c-9 -6 -10 -10 -3 -10 6 0 15 5 18 10 8 12 4 12 -15 0z"/>
<path d="M1344 2498 c-4 -6 -3 -8 3 -5 11 7 28 -20 24 -36 -1 -5 3 -6 9 -2 6
4 4 15 -6 31 -19 28 -20 28 -30 12z"/>
<path d="M1371 2418 l-24 -33 28 25 c20 18 26 20 22 8 -3 -9 -1 -19 6 -21 9
-3 8 -9 -3 -23 -14 -18 -14 -18 3 -5 20 15 22 9 6 -21 -8 -15 -8 -19 0 -14 10
7 15 -5 12 -31 -1 -6 2 -14 7 -17 4 -2 9 9 10 25 1 16 -3 29 -9 29 -5 0 -8 8
-5 18 3 9 -2 34 -12 55 l-17 39 -24 -34z"/>
<path d="M1334 2424 c-18 -14 -18 -14 6 -3 31 14 36 19 24 19 -6 0 -19 -7 -30
-16z"/>
<path d="M756 2414 c-14 -14 -14 -18 0 -45 12 -25 18 -28 30 -18 8 6 14 14 14
16 0 3 -7 0 -15 -7 -12 -10 -15 -10 -17 1 0 8 -2 21 -3 29 -1 8 3 21 8 28 13
17 1 15 -17 -4z"/>
<path d="M1730 2300 c0 -91 3 -110 15 -110 11 0 15 12 15 45 l0 45 50 0 c38 0
50 4 50 15 0 11 -12 15 -50 15 l-50 0 0 35 0 35 55 0 c42 0 55 3 55 15 0 12
-14 15 -70 15 l-70 0 0 -110z"/>
<path d="M2030 2300 c0 -91 3 -110 15 -110 12 0 15 19 15 110 0 91 -3 110 -15
110 -12 0 -15 -19 -15 -110z"/>
<path d="M2220 2395 c0 -10 11 -15 35 -15 l35 0 0 -95 c0 -77 3 -95 15 -95 11
0 15 19 17 93 l3 92 33 3 c20 2 32 9 32 18 0 11 -18 14 -85 14 -69 0 -85 -3
-85 -15z"/>
<path d="M2530 2403 c0 -5 18 -54 41 -110 29 -72 46 -103 58 -103 11 0 28 29
53 93 56 139 53 129 33 126 -10 -3 -26 -27 -40 -64 -13 -33 -28 -73 -35 -90
l-12 -30 -9 25 c-50 134 -62 160 -75 160 -8 0 -14 -3 -14 -7z"/>
<path d="M2890 2300 l0 -110 80 0 c64 0 80 3 80 15 0 12 -14 15 -66 15 l-65 0
3 33 c3 31 4 32 56 35 28 2 52 7 52 12 0 5 -24 10 -52 12 -52 3 -53 4 -56 36
l-3 32 60 0 c48 0 61 3 61 15 0 12 -15 15 -75 15 l-75 0 0 -110z"/>
<path d="M3220 2301 c0 -92 3 -111 15 -111 10 0 15 11 15 35 0 33 2 35 34 35
28 0 38 -6 55 -35 11 -19 27 -35 36 -35 20 0 19 6 -6 42 l-21 29 21 20 c28 26
28 80 0 105 -14 12 -40 19 -85 22 l-64 4 0 -111z m121 69 c21 -12 25 -50 7
-68 -7 -7 -31 -12 -55 -12 l-43 0 0 45 c0 45 0 45 36 45 19 0 44 -5 55 -10z"/>
<path d="M3593 2401 c-24 -11 -37 -42 -28 -70 3 -11 29 -28 61 -41 57 -23 66
-42 32 -64 -13 -8 -26 -7 -50 2 -47 19 -53 19 -53 2 0 -20 74 -45 108 -36 15
3 34 17 42 30 24 36 6 72 -45 87 -46 14 -65 32 -56 54 6 17 48 20 76 5 22 -12
39 5 22 22 -14 14 -83 19 -109 9z"/>
<path d="M3890 2300 l0 -110 75 0 c60 0 75 3 75 15 0 12 -13 15 -60 15 l-60 0
0 35 0 35 55 0 c70 0 72 18 3 22 -52 3 -53 4 -56 36 l-3 32 60 0 c48 0 61 3
61 15 0 12 -15 15 -75 15 l-75 0 0 -110z"/>
<path d="M1370 2379 c0 -5 5 -7 10 -4 6 3 10 8 10 11 0 2 -4 4 -10 4 -5 0 -10
-5 -10 -11z"/>
<path d="M786 2332 c-3 -5 10 -25 28 -46 27 -29 35 -34 40 -21 4 11 2 14 -6 9
-8 -5 -9 -2 -4 11 5 15 4 16 -9 5 -23 -19 -18 0 8 29 l22 26 -25 -22 c-20 -17
-27 -19 -37 -8 -6 7 -9 16 -6 19 4 3 4 6 0 6 -3 0 -8 -4 -11 -8z"/>
<path d="M761 2093 c-1 -22 12 -36 37 -39 14 -3 16 12 2 21 -5 3 -10 1 -10 -6
0 -18 -17 1 -23 26 -4 18 -5 18 -6 -2z"/>
<path d="M645 2079 c38 -18 75 -26 63 -13 -4 3 -9 5 -12 5 -3 0 -21 6 -40 14
-51 21 -58 17 -11 -6z"/>
<path d="M740 2072 c0 -8 -5 -10 -12 -6 -10 5 -10 4 -1 -6 16 -17 35 -9 23 10
-7 11 -10 11 -10 2z"/>
<path d="M850 2060 c0 -5 5 -10 11 -10 5 0 7 5 4 10 -3 6 -8 10 -11 10 -2 0
-4 -4 -4 -10z"/>
</g>
</svg>
