<svg width="293" height="82" viewBox="0 0 293 82" fill="none" xmlns="http://www.w3.org/2000/svg">
<path d="M33.1735 49V10.408H34.6135V49H33.1735ZM26.8375 49V10.408H28.2775V49H26.8375ZM30.0055 49V10.408H31.4455V49H30.0055ZM36.3415 11.848V10.408H55.4935V11.848H36.3415ZM36.3415 15.016V13.576H55.4935V15.016H36.3415ZM36.3415 18.184V16.744H55.4935V18.184H36.3415ZM36.3415 27.256V25.816H52.7575V27.256H36.3415ZM36.3415 30.424V28.984H52.7575V30.424H36.3415ZM36.3415 33.592V32.152H52.7575V33.592H36.3415ZM65.6579 49V10.408H67.0979V49H65.6579ZM59.3219 49V10.408H60.7619V49H59.3219ZM62.4899 49V10.408H63.9299V49H62.4899ZM69.9644 11.848V10.408H99.7724V11.848H69.9644ZM69.9644 15.016V13.576H99.7724V15.016H69.9644ZM69.9644 18.184V16.744H99.7724V18.184H69.9644ZM87.3404 49V19.72H88.7804V49H87.3404ZM81.0044 49V19.72H82.4444V49H81.0044ZM84.1724 49V19.72H85.6124V49H84.1724ZM120.922 49L107.914 10.408H109.45L122.458 49H120.922ZM114.202 49L101.194 10.408H102.73L115.738 49H114.202ZM117.562 49L104.554 10.408H106.09L119.098 49H117.562ZM121.834 41.752L121.066 39.4L130.762 10.408H132.298L121.834 41.752ZM120.154 36.712L119.386 34.456L127.402 10.408H128.938L120.154 36.712ZM123.514 46.648L122.746 44.44L134.122 10.408H135.658L123.514 46.648ZM144.877 49V10.408H146.317V49H144.877ZM138.541 49V10.408H139.981V49H138.541ZM141.709 49V10.408H143.149V49H141.709ZM148.045 11.848V10.408H167.197V11.848H148.045ZM148.045 15.016V13.576H167.197V15.016H148.045ZM148.045 18.184V16.744H167.197V18.184H148.045ZM148.045 27.256V25.816H164.461V27.256H148.045ZM148.045 30.424V28.984H164.461V30.424H148.045ZM148.045 33.592V32.152H164.461V33.592H148.045ZM148.045 42.664V41.224H167.197V42.664H148.045ZM148.045 45.832V44.392H167.197V45.832H148.045ZM148.045 49V47.56H167.197V49H148.045ZM177.361 49V10.408H178.801V49H177.361ZM171.025 49V10.408H172.465V49H171.025ZM174.193 49V10.408H175.633V49H174.193ZM180.529 32.872V31.432H191.809C193.633 31.432 195.281 31.032 196.753 30.232C198.257 29.432 199.441 28.296 200.305 26.824C201.201 25.352 201.649 23.624 201.649 21.64C201.649 19.656 201.201 17.928 200.305 16.456C199.441 14.984 198.257 13.848 196.753 13.048C195.281 12.248 193.633 11.848 191.809 11.848H180.529V10.408H191.809C193.889 10.408 195.777 10.888 197.473 11.848C199.201 12.776 200.561 14.088 201.553 15.784C202.577 17.448 203.089 19.4 203.089 21.64C203.089 23.88 202.577 25.848 201.553 27.544C200.561 29.208 199.201 30.52 197.473 31.48C195.777 32.408 193.889 32.872 191.809 32.872H180.529ZM180.529 29.704V28.264H191.809C193.665 28.264 195.233 27.688 196.513 26.536C197.825 25.352 198.481 23.72 198.481 21.64C198.481 19.56 197.825 17.944 196.513 16.792C195.233 15.608 193.665 15.016 191.809 15.016H180.529V13.576H191.809C193.313 13.576 194.673 13.912 195.889 14.584C197.105 15.224 198.081 16.152 198.817 17.368C199.553 18.552 199.921 19.976 199.921 21.64C199.921 23.304 199.553 24.744 198.817 25.96C198.081 27.144 197.105 28.072 195.889 28.744C194.673 29.384 193.313 29.704 191.809 29.704H180.529ZM180.529 26.536V25.096H191.809C192.769 25.096 193.585 24.824 194.257 24.28C194.961 23.704 195.313 22.824 195.313 21.64C195.313 20.424 194.961 19.544 194.257 19C193.585 18.456 192.769 18.184 191.809 18.184H180.529V16.744H191.809C193.185 16.744 194.353 17.16 195.313 17.992C196.273 18.824 196.753 20.04 196.753 21.64C196.753 23.24 196.273 24.456 195.313 25.288C194.353 26.12 193.185 26.536 191.809 26.536H180.529ZM201.121 49L194.353 34.168C194.577 34.136 194.801 34.104 195.025 34.072C195.281 34.008 195.521 33.928 195.745 33.832L202.705 49H201.121ZM197.617 49L190.945 34.504C191.201 34.504 191.457 34.504 191.713 34.504C192.001 34.472 192.273 34.44 192.529 34.408L199.201 49H197.617ZM194.113 49L187.489 34.552H189.073L195.697 49H194.113ZM220.087 43.384C217.815 43.384 215.943 42.952 214.471 42.088C212.999 41.192 212.199 40.008 212.071 38.536L213.463 38.152C213.463 39.24 214.071 40.152 215.287 40.888C216.535 41.592 218.135 41.944 220.087 41.944C222.103 41.944 223.735 41.576 224.983 40.84C226.263 40.104 226.903 39.16 226.903 38.008C226.903 36.92 226.375 36.04 225.319 35.368C224.263 34.696 222.823 34.104 220.999 33.592L218.023 32.728C214.055 31.576 211.063 30.12 209.047 28.36C207.031 26.6 206.023 24.184 206.023 21.112C206.023 18.904 206.631 16.952 207.847 15.256C209.095 13.528 210.775 12.168 212.887 11.176C215.031 10.184 217.447 9.688 220.135 9.688C222.567 9.688 224.759 10.088 226.711 10.888C228.695 11.656 230.327 12.76 231.607 14.2C232.919 15.64 233.751 17.32 234.103 19.24L232.711 19.624C232.423 17.928 231.703 16.44 230.551 15.16C229.399 13.88 227.927 12.888 226.135 12.184C224.343 11.48 222.343 11.128 220.135 11.128C217.703 11.128 215.527 11.576 213.607 12.472C211.719 13.336 210.215 14.52 209.095 16.024C208.007 17.528 207.463 19.256 207.463 21.208C207.463 23.832 208.375 25.944 210.199 27.544C212.055 29.112 214.791 30.392 218.407 31.384L221.383 32.2C223.591 32.808 225.303 33.544 226.519 34.408C227.735 35.272 228.343 36.44 228.343 37.912C228.343 39.544 227.591 40.872 226.087 41.896C224.583 42.888 222.583 43.384 220.087 43.384ZM220.087 46.552C217.079 46.552 214.551 45.896 212.503 44.584C210.487 43.24 209.303 41.496 208.951 39.352L210.391 38.968C210.647 40.824 211.639 42.312 213.367 43.432C215.127 44.552 217.367 45.112 220.087 45.112C222.071 45.112 223.815 44.808 225.319 44.2C226.823 43.592 227.991 42.744 228.823 41.656C229.655 40.568 230.071 39.32 230.071 37.912C230.071 35.96 229.335 34.424 227.863 33.304C226.391 32.152 224.359 31.224 221.767 30.52L218.839 29.704C215.735 28.84 213.351 27.752 211.687 26.44C210.023 25.128 209.191 23.384 209.191 21.208C209.191 19.576 209.655 18.136 210.583 16.888C211.543 15.64 212.855 14.664 214.519 13.96C216.183 13.224 218.055 12.856 220.135 12.856C222.087 12.856 223.831 13.16 225.367 13.768C226.935 14.344 228.215 15.176 229.207 16.264C230.199 17.352 230.807 18.616 231.031 20.056L229.591 20.44C229.367 18.584 228.375 17.096 226.615 15.976C224.887 14.856 222.727 14.296 220.135 14.296C218.311 14.296 216.679 14.6 215.239 15.208C213.799 15.784 212.663 16.6 211.831 17.656C211.031 18.68 210.631 19.864 210.631 21.208C210.631 23.032 211.351 24.472 212.791 25.528C214.263 26.584 216.391 27.512 219.175 28.312L222.055 29.128C225.031 29.96 227.351 31.064 229.015 32.44C230.679 33.784 231.511 35.608 231.511 37.912C231.511 39.608 231.031 41.112 230.071 42.424C229.111 43.704 227.767 44.712 226.039 45.448C224.343 46.184 222.359 46.552 220.087 46.552ZM220.087 49.72C217.591 49.72 215.335 49.336 213.319 48.568C211.335 47.768 209.687 46.664 208.375 45.256C207.095 43.816 206.263 42.12 205.879 40.168L207.271 39.784C207.591 41.512 208.311 43.016 209.431 44.296C210.583 45.544 212.071 46.52 213.895 47.224C215.719 47.928 217.783 48.28 220.087 48.28C222.711 48.28 224.999 47.848 226.951 46.984C228.935 46.088 230.471 44.872 231.559 43.336C232.679 41.768 233.239 39.96 233.239 37.912C233.239 35.192 232.295 33.016 230.407 31.384C228.519 29.752 225.863 28.44 222.439 27.448L219.607 26.632C217.271 25.96 215.479 25.224 214.231 24.424C212.983 23.624 212.359 22.552 212.359 21.208C212.359 19.64 213.095 18.392 214.567 17.464C216.039 16.504 217.895 16.024 220.135 16.024C222.311 16.024 224.103 16.472 225.511 17.368C226.919 18.264 227.719 19.432 227.911 20.872L226.519 21.256C226.455 20.136 225.831 19.224 224.647 18.52C223.495 17.816 221.991 17.464 220.135 17.464C218.375 17.464 216.871 17.8 215.623 18.472C214.407 19.144 213.799 20.024 213.799 21.112C213.799 22.104 214.359 22.904 215.479 23.512C216.631 24.12 218.135 24.696 219.991 25.24L222.727 26.056C226.599 27.208 229.559 28.712 231.607 30.568C233.655 32.392 234.679 34.872 234.679 38.008C234.679 40.28 234.055 42.312 232.807 44.104C231.591 45.864 229.879 47.24 227.671 48.232C225.495 49.224 222.967 49.72 220.087 49.72ZM244.814 49V10.408H246.254V49H244.814ZM238.478 49V10.408H239.918V49H238.478ZM241.646 49V10.408H243.086V49H241.646ZM247.982 11.848V10.408H267.134V11.848H247.982ZM247.982 15.016V13.576H267.134V15.016H247.982ZM247.982 18.184V16.744H267.134V18.184H247.982ZM247.982 27.256V25.816H264.398V27.256H247.982ZM247.982 30.424V28.984H264.398V30.424H247.982ZM247.982 33.592V32.152H264.398V33.592H247.982ZM247.982 42.664V41.224H267.134V42.664H247.982ZM247.982 45.832V44.392H267.134V45.832H247.982ZM247.982 49V47.56H267.134V49H247.982Z" fill="#FF2625"/>
<path d="M3 67H0V79H3V67Z" fill="#FF2625"/>
<rect width="3" height="18" transform="matrix(-1 0 0 1 6 64)" fill="#FF2625"/>
<rect x="6" y="71" width="281" height="4" fill="#FF2625"/>
<rect x="287" y="64" width="3" height="18" fill="#FF2625"/>
<rect x="290" y="67" width="3" height="12" fill="#FF2625"/>
</svg>
