<svg width="257" height="106" viewBox="0 0 257 106" fill="none" xmlns="http://www.w3.org/2000/svg">
<g filter="url(#filter0_d_34_16)">
<path d="M15.5 6.479C14.1823 6.479 13.1042 5.47123 13.1042 4.2395C13.1042 2.97978 14.1823 2 15.5 2C16.8177 2 17.8958 2.97978 17.8958 4.2395C17.8958 5.47123 16.8177 6.479 15.5 6.479ZM5.94661 5.55521C6.99479 5.55521 7.83333 6.36703 7.83333 7.34681C7.83333 8.35459 6.99479 9.13841 5.94661 9.13841C4.86849 9.13841 4 8.35459 4 7.34681C4 6.36703 4.86849 5.55521 5.94661 5.55521ZM25.1133 5.55521C26.1615 5.55521 27 6.36703 27 7.34681C27 8.35459 26.1615 9.13841 25.1133 9.13841C24.0352 9.13841 23.1667 8.35459 23.1667 7.34681C23.1667 6.36703 24.0352 5.55521 25.1133 5.55521ZM8.04297 17.9285L6.45573 9.81026C6.9349 9.72628 7.38411 9.47434 7.74349 9.1944C8.73177 10.0342 9.98958 10.846 11.1875 10.846C12.625 10.846 13.793 8.77449 14.6016 7.03888C14.8711 7.12286 15.2005 7.20684 15.5 7.20684C15.7995 7.20684 16.1289 7.12286 16.3984 7.03888C17.207 8.77449 18.375 10.846 19.8125 10.846C21.0104 10.846 22.2682 10.0342 23.2565 9.1944C23.6159 9.47434 24.0651 9.72628 24.5443 9.81026L22.957 17.9285H8.04297ZM7.71354 18.6283H23.2865V20H7.71354V18.6283Z" fill="#992626"/>
<path d="M13.1735 66V27.408H14.6135V66H13.1735ZM6.8375 66V27.408H8.2775V66H6.8375ZM10.0055 66V27.408H11.4455V66H10.0055ZM16.3415 28.848V27.408H35.4935V28.848H16.3415ZM16.3415 32.016V30.576H35.4935V32.016H16.3415ZM16.3415 35.184V33.744H35.4935V35.184H16.3415ZM16.3415 44.256V42.816H32.7575V44.256H16.3415ZM16.3415 47.424V45.984H32.7575V47.424H16.3415ZM16.3415 50.592V49.152H32.7575V50.592H16.3415ZM45.6579 66V27.408H47.0979V66H45.6579ZM39.3219 66V27.408H40.7619V66H39.3219ZM42.4899 66V27.408H43.9299V66H42.4899ZM49.9644 28.848V27.408H79.7724V28.848H49.9644ZM49.9644 32.016V30.576H79.7724V32.016H49.9644ZM49.9644 35.184V33.744H79.7724V35.184H49.9644ZM67.3404 66V36.72H68.7804V66H67.3404ZM61.0044 66V36.72H62.4444V66H61.0044ZM64.1724 66V36.72H65.6124V66H64.1724ZM100.922 66L87.9144 27.408H89.4504L102.458 66H100.922ZM94.2024 66L81.1944 27.408H82.7304L95.7384 66H94.2024ZM97.5624 66L84.5544 27.408H86.0904L99.0984 66H97.5624ZM101.834 58.752L101.066 56.4L110.762 27.408H112.298L101.834 58.752ZM100.154 53.712L99.3864 51.456L107.402 27.408H108.938L100.154 53.712ZM103.514 63.648L102.746 61.44L114.122 27.408H115.658L103.514 63.648ZM124.877 66V27.408H126.317V66H124.877ZM118.541 66V27.408H119.981V66H118.541ZM121.709 66V27.408H123.149V66H121.709ZM128.045 28.848V27.408H147.197V28.848H128.045ZM128.045 32.016V30.576H147.197V32.016H128.045ZM128.045 35.184V33.744H147.197V35.184H128.045ZM128.045 44.256V42.816H144.461V44.256H128.045ZM128.045 47.424V45.984H144.461V47.424H128.045ZM128.045 50.592V49.152H144.461V50.592H128.045ZM128.045 59.664V58.224H147.197V59.664H128.045ZM128.045 62.832V61.392H147.197V62.832H128.045ZM128.045 66V64.56H147.197V66H128.045ZM157.361 66V27.408H158.801V66H157.361ZM151.025 66V27.408H152.465V66H151.025ZM154.193 66V27.408H155.633V66H154.193ZM160.529 49.872V48.432H171.809C173.633 48.432 175.281 48.032 176.753 47.232C178.257 46.432 179.441 45.296 180.305 43.824C181.201 42.352 181.649 40.624 181.649 38.64C181.649 36.656 181.201 34.928 180.305 33.456C179.441 31.984 178.257 30.848 176.753 30.048C175.281 29.248 173.633 28.848 171.809 28.848H160.529V27.408H171.809C173.889 27.408 175.777 27.888 177.473 28.848C179.201 29.776 180.561 31.088 181.553 32.784C182.577 34.448 183.089 36.4 183.089 38.64C183.089 40.88 182.577 42.848 181.553 44.544C180.561 46.208 179.201 47.52 177.473 48.48C175.777 49.408 173.889 49.872 171.809 49.872H160.529ZM160.529 46.704V45.264H171.809C173.665 45.264 175.233 44.688 176.513 43.536C177.825 42.352 178.481 40.72 178.481 38.64C178.481 36.56 177.825 34.944 176.513 33.792C175.233 32.608 173.665 32.016 171.809 32.016H160.529V30.576H171.809C173.313 30.576 174.673 30.912 175.889 31.584C177.105 32.224 178.081 33.152 178.817 34.368C179.553 35.552 179.921 36.976 179.921 38.64C179.921 40.304 179.553 41.744 178.817 42.96C178.081 44.144 177.105 45.072 175.889 45.744C174.673 46.384 173.313 46.704 171.809 46.704H160.529ZM160.529 43.536V42.096H171.809C172.769 42.096 173.585 41.824 174.257 41.28C174.961 40.704 175.313 39.824 175.313 38.64C175.313 37.424 174.961 36.544 174.257 36C173.585 35.456 172.769 35.184 171.809 35.184H160.529V33.744H171.809C173.185 33.744 174.353 34.16 175.313 34.992C176.273 35.824 176.753 37.04 176.753 38.64C176.753 40.24 176.273 41.456 175.313 42.288C174.353 43.12 173.185 43.536 171.809 43.536H160.529ZM181.121 66L174.353 51.168C174.577 51.136 174.801 51.104 175.025 51.072C175.281 51.008 175.521 50.928 175.745 50.832L182.705 66H181.121ZM177.617 66L170.945 51.504C171.201 51.504 171.457 51.504 171.713 51.504C172.001 51.472 172.273 51.44 172.529 51.408L179.201 66H177.617ZM174.113 66L167.489 51.552H169.073L175.697 66H174.113ZM200.087 60.384C197.815 60.384 195.943 59.952 194.471 59.088C192.999 58.192 192.199 57.008 192.071 55.536L193.463 55.152C193.463 56.24 194.071 57.152 195.287 57.888C196.535 58.592 198.135 58.944 200.087 58.944C202.103 58.944 203.735 58.576 204.983 57.84C206.263 57.104 206.903 56.16 206.903 55.008C206.903 53.92 206.375 53.04 205.319 52.368C204.263 51.696 202.823 51.104 200.999 50.592L198.023 49.728C194.055 48.576 191.063 47.12 189.047 45.36C187.031 43.6 186.023 41.184 186.023 38.112C186.023 35.904 186.631 33.952 187.847 32.256C189.095 30.528 190.775 29.168 192.887 28.176C195.031 27.184 197.447 26.688 200.135 26.688C202.567 26.688 204.759 27.088 206.711 27.888C208.695 28.656 210.327 29.76 211.607 31.2C212.919 32.64 213.751 34.32 214.103 36.24L212.711 36.624C212.423 34.928 211.703 33.44 210.551 32.16C209.399 30.88 207.927 29.888 206.135 29.184C204.343 28.48 202.343 28.128 200.135 28.128C197.703 28.128 195.527 28.576 193.607 29.472C191.719 30.336 190.215 31.52 189.095 33.024C188.007 34.528 187.463 36.256 187.463 38.208C187.463 40.832 188.375 42.944 190.199 44.544C192.055 46.112 194.791 47.392 198.407 48.384L201.383 49.2C203.591 49.808 205.303 50.544 206.519 51.408C207.735 52.272 208.343 53.44 208.343 54.912C208.343 56.544 207.591 57.872 206.087 58.896C204.583 59.888 202.583 60.384 200.087 60.384ZM200.087 63.552C197.079 63.552 194.551 62.896 192.503 61.584C190.487 60.24 189.303 58.496 188.951 56.352L190.391 55.968C190.647 57.824 191.639 59.312 193.367 60.432C195.127 61.552 197.367 62.112 200.087 62.112C202.071 62.112 203.815 61.808 205.319 61.2C206.823 60.592 207.991 59.744 208.823 58.656C209.655 57.568 210.071 56.32 210.071 54.912C210.071 52.96 209.335 51.424 207.863 50.304C206.391 49.152 204.359 48.224 201.767 47.52L198.839 46.704C195.735 45.84 193.351 44.752 191.687 43.44C190.023 42.128 189.191 40.384 189.191 38.208C189.191 36.576 189.655 35.136 190.583 33.888C191.543 32.64 192.855 31.664 194.519 30.96C196.183 30.224 198.055 29.856 200.135 29.856C202.087 29.856 203.831 30.16 205.367 30.768C206.935 31.344 208.215 32.176 209.207 33.264C210.199 34.352 210.807 35.616 211.031 37.056L209.591 37.44C209.367 35.584 208.375 34.096 206.615 32.976C204.887 31.856 202.727 31.296 200.135 31.296C198.311 31.296 196.679 31.6 195.239 32.208C193.799 32.784 192.663 33.6 191.831 34.656C191.031 35.68 190.631 36.864 190.631 38.208C190.631 40.032 191.351 41.472 192.791 42.528C194.263 43.584 196.391 44.512 199.175 45.312L202.055 46.128C205.031 46.96 207.351 48.064 209.015 49.44C210.679 50.784 211.511 52.608 211.511 54.912C211.511 56.608 211.031 58.112 210.071 59.424C209.111 60.704 207.767 61.712 206.039 62.448C204.343 63.184 202.359 63.552 200.087 63.552ZM200.087 66.72C197.591 66.72 195.335 66.336 193.319 65.568C191.335 64.768 189.687 63.664 188.375 62.256C187.095 60.816 186.263 59.12 185.879 57.168L187.271 56.784C187.591 58.512 188.311 60.016 189.431 61.296C190.583 62.544 192.071 63.52 193.895 64.224C195.719 64.928 197.783 65.28 200.087 65.28C202.711 65.28 204.999 64.848 206.951 63.984C208.935 63.088 210.471 61.872 211.559 60.336C212.679 58.768 213.239 56.96 213.239 54.912C213.239 52.192 212.295 50.016 210.407 48.384C208.519 46.752 205.863 45.44 202.439 44.448L199.607 43.632C197.271 42.96 195.479 42.224 194.231 41.424C192.983 40.624 192.359 39.552 192.359 38.208C192.359 36.64 193.095 35.392 194.567 34.464C196.039 33.504 197.895 33.024 200.135 33.024C202.311 33.024 204.103 33.472 205.511 34.368C206.919 35.264 207.719 36.432 207.911 37.872L206.519 38.256C206.455 37.136 205.831 36.224 204.647 35.52C203.495 34.816 201.991 34.464 200.135 34.464C198.375 34.464 196.871 34.8 195.623 35.472C194.407 36.144 193.799 37.024 193.799 38.112C193.799 39.104 194.359 39.904 195.479 40.512C196.631 41.12 198.135 41.696 199.991 42.24L202.727 43.056C206.599 44.208 209.559 45.712 211.607 47.568C213.655 49.392 214.679 51.872 214.679 55.008C214.679 57.28 214.055 59.312 212.807 61.104C211.591 62.864 209.879 64.24 207.671 65.232C205.495 66.224 202.967 66.72 200.087 66.72ZM224.814 66V27.408H226.254V66H224.814ZM218.478 66V27.408H219.918V66H218.478ZM221.646 66V27.408H223.086V66H221.646ZM227.982 28.848V27.408H247.134V28.848H227.982ZM227.982 32.016V30.576H247.134V32.016H227.982ZM227.982 35.184V33.744H247.134V35.184H227.982ZM227.982 44.256V42.816H244.398V44.256H227.982ZM227.982 47.424V45.984H244.398V47.424H227.982ZM227.982 50.592V49.152H244.398V50.592H227.982ZM227.982 59.664V58.224H247.134V59.664H227.982ZM227.982 62.832V61.392H247.134V62.832H227.982ZM227.982 66V64.56H247.134V66H227.982Z" fill="#AB1010"/>
<path d="M25 84H22V90H25V84Z" fill="#AB1010"/>
<path d="M28 81H25V93H28V81Z" fill="#AB1010"/>
<rect width="3" height="18" transform="matrix(-1 0 0 1 31 78)" fill="#AB1010"/>
<path d="M31 85H222V89H31V85Z" fill="#AB1010"/>
<rect x="222" y="78" width="3" height="18" fill="#AB1010"/>
<rect x="225" y="81" width="3" height="12" fill="#AB1010"/>
<path d="M231 84H228V90H231V84Z" fill="#AB1010"/>
</g>
<defs>
<filter id="filter0_d_34_16" x="0" y="0" width="257" height="106" filterUnits="userSpaceOnUse" color-interpolation-filters="sRGB">
<feFlood flood-opacity="0" result="BackgroundImageFix"/>
<feColorMatrix in="SourceAlpha" type="matrix" values="0 0 0 0 0 0 0 0 0 0 0 0 0 0 0 0 0 0 127 0" result="hardAlpha"/>
<feOffset dx="2" dy="4"/>
<feGaussianBlur stdDeviation="3"/>
<feComposite in2="hardAlpha" operator="out"/>
<feColorMatrix type="matrix" values="0 0 0 0 0 0 0 0 0 0 0 0 0 0 0 0 0 0 0.71 0"/>
<feBlend mode="normal" in2="BackgroundImageFix" result="effect1_dropShadow_34_16"/>
<feBlend mode="normal" in="SourceGraphic" in2="effect1_dropShadow_34_16" result="shape"/>
</filter>
</defs>
</svg>
