<svg width="257" height="99" viewBox="0 0 257 99" fill="none" xmlns="http://www.w3.org/2000/svg">
<g filter="url(#filter0_d_36_2)">
<path d="M13.1735 59V20.408H14.6135V59H13.1735ZM6.8375 59V20.408H8.2775V59H6.8375ZM10.0055 59V20.408H11.4455V59H10.0055ZM16.3415 21.848V20.408H35.4935V21.848H16.3415ZM16.3415 25.016V23.576H35.4935V25.016H16.3415ZM16.3415 28.184V26.744H35.4935V28.184H16.3415ZM16.3415 37.256V35.816H32.7575V37.256H16.3415ZM16.3415 40.424V38.984H32.7575V40.424H16.3415ZM16.3415 43.592V42.152H32.7575V43.592H16.3415ZM45.6579 59V20.408H47.0979V59H45.6579ZM39.3219 59V20.408H40.7619V59H39.3219ZM42.4899 59V20.408H43.9299V59H42.4899ZM49.9644 21.848V20.408H79.7724V21.848H49.9644ZM49.9644 25.016V23.576H79.7724V25.016H49.9644ZM49.9644 28.184V26.744H79.7724V28.184H49.9644ZM67.3404 59V29.72H68.7804V59H67.3404ZM61.0044 59V29.72H62.4444V59H61.0044ZM64.1724 59V29.72H65.6124V59H64.1724ZM100.922 59L87.9144 20.408H89.4504L102.458 59H100.922ZM94.2024 59L81.1944 20.408H82.7304L95.7384 59H94.2024ZM97.5624 59L84.5544 20.408H86.0904L99.0984 59H97.5624ZM101.834 51.752L101.066 49.4L110.762 20.408H112.298L101.834 51.752ZM100.154 46.712L99.3864 44.456L107.402 20.408H108.938L100.154 46.712ZM103.514 56.648L102.746 54.44L114.122 20.408H115.658L103.514 56.648ZM124.877 59V20.408H126.317V59H124.877ZM118.541 59V20.408H119.981V59H118.541ZM121.709 59V20.408H123.149V59H121.709ZM128.045 21.848V20.408H147.197V21.848H128.045ZM128.045 25.016V23.576H147.197V25.016H128.045ZM128.045 28.184V26.744H147.197V28.184H128.045ZM128.045 37.256V35.816H144.461V37.256H128.045ZM128.045 40.424V38.984H144.461V40.424H128.045ZM128.045 43.592V42.152H144.461V43.592H128.045ZM128.045 52.664V51.224H147.197V52.664H128.045ZM128.045 55.832V54.392H147.197V55.832H128.045ZM128.045 59V57.56H147.197V59H128.045ZM157.361 59V20.408H158.801V59H157.361ZM151.025 59V20.408H152.465V59H151.025ZM154.193 59V20.408H155.633V59H154.193ZM160.529 42.872V41.432H171.809C173.633 41.432 175.281 41.032 176.753 40.232C178.257 39.432 179.441 38.296 180.305 36.824C181.201 35.352 181.649 33.624 181.649 31.64C181.649 29.656 181.201 27.928 180.305 26.456C179.441 24.984 178.257 23.848 176.753 23.048C175.281 22.248 173.633 21.848 171.809 21.848H160.529V20.408H171.809C173.889 20.408 175.777 20.888 177.473 21.848C179.201 22.776 180.561 24.088 181.553 25.784C182.577 27.448 183.089 29.4 183.089 31.64C183.089 33.88 182.577 35.848 181.553 37.544C180.561 39.208 179.201 40.52 177.473 41.48C175.777 42.408 173.889 42.872 171.809 42.872H160.529ZM160.529 39.704V38.264H171.809C173.665 38.264 175.233 37.688 176.513 36.536C177.825 35.352 178.481 33.72 178.481 31.64C178.481 29.56 177.825 27.944 176.513 26.792C175.233 25.608 173.665 25.016 171.809 25.016H160.529V23.576H171.809C173.313 23.576 174.673 23.912 175.889 24.584C177.105 25.224 178.081 26.152 178.817 27.368C179.553 28.552 179.921 29.976 179.921 31.64C179.921 33.304 179.553 34.744 178.817 35.96C178.081 37.144 177.105 38.072 175.889 38.744C174.673 39.384 173.313 39.704 171.809 39.704H160.529ZM160.529 36.536V35.096H171.809C172.769 35.096 173.585 34.824 174.257 34.28C174.961 33.704 175.313 32.824 175.313 31.64C175.313 30.424 174.961 29.544 174.257 29C173.585 28.456 172.769 28.184 171.809 28.184H160.529V26.744H171.809C173.185 26.744 174.353 27.16 175.313 27.992C176.273 28.824 176.753 30.04 176.753 31.64C176.753 33.24 176.273 34.456 175.313 35.288C174.353 36.12 173.185 36.536 171.809 36.536H160.529ZM181.121 59L174.353 44.168C174.577 44.136 174.801 44.104 175.025 44.072C175.281 44.008 175.521 43.928 175.745 43.832L182.705 59H181.121ZM177.617 59L170.945 44.504C171.201 44.504 171.457 44.504 171.713 44.504C172.001 44.472 172.273 44.44 172.529 44.408L179.201 59H177.617ZM174.113 59L167.489 44.552H169.073L175.697 59H174.113ZM200.087 53.384C197.815 53.384 195.943 52.952 194.471 52.088C192.999 51.192 192.199 50.008 192.071 48.536L193.463 48.152C193.463 49.24 194.071 50.152 195.287 50.888C196.535 51.592 198.135 51.944 200.087 51.944C202.103 51.944 203.735 51.576 204.983 50.84C206.263 50.104 206.903 49.16 206.903 48.008C206.903 46.92 206.375 46.04 205.319 45.368C204.263 44.696 202.823 44.104 200.999 43.592L198.023 42.728C194.055 41.576 191.063 40.12 189.047 38.36C187.031 36.6 186.023 34.184 186.023 31.112C186.023 28.904 186.631 26.952 187.847 25.256C189.095 23.528 190.775 22.168 192.887 21.176C195.031 20.184 197.447 19.688 200.135 19.688C202.567 19.688 204.759 20.088 206.711 20.888C208.695 21.656 210.327 22.76 211.607 24.2C212.919 25.64 213.751 27.32 214.103 29.24L212.711 29.624C212.423 27.928 211.703 26.44 210.551 25.16C209.399 23.88 207.927 22.888 206.135 22.184C204.343 21.48 202.343 21.128 200.135 21.128C197.703 21.128 195.527 21.576 193.607 22.472C191.719 23.336 190.215 24.52 189.095 26.024C188.007 27.528 187.463 29.256 187.463 31.208C187.463 33.832 188.375 35.944 190.199 37.544C192.055 39.112 194.791 40.392 198.407 41.384L201.383 42.2C203.591 42.808 205.303 43.544 206.519 44.408C207.735 45.272 208.343 46.44 208.343 47.912C208.343 49.544 207.591 50.872 206.087 51.896C204.583 52.888 202.583 53.384 200.087 53.384ZM200.087 56.552C197.079 56.552 194.551 55.896 192.503 54.584C190.487 53.24 189.303 51.496 188.951 49.352L190.391 48.968C190.647 50.824 191.639 52.312 193.367 53.432C195.127 54.552 197.367 55.112 200.087 55.112C202.071 55.112 203.815 54.808 205.319 54.2C206.823 53.592 207.991 52.744 208.823 51.656C209.655 50.568 210.071 49.32 210.071 47.912C210.071 45.96 209.335 44.424 207.863 43.304C206.391 42.152 204.359 41.224 201.767 40.52L198.839 39.704C195.735 38.84 193.351 37.752 191.687 36.44C190.023 35.128 189.191 33.384 189.191 31.208C189.191 29.576 189.655 28.136 190.583 26.888C191.543 25.64 192.855 24.664 194.519 23.96C196.183 23.224 198.055 22.856 200.135 22.856C202.087 22.856 203.831 23.16 205.367 23.768C206.935 24.344 208.215 25.176 209.207 26.264C210.199 27.352 210.807 28.616 211.031 30.056L209.591 30.44C209.367 28.584 208.375 27.096 206.615 25.976C204.887 24.856 202.727 24.296 200.135 24.296C198.311 24.296 196.679 24.6 195.239 25.208C193.799 25.784 192.663 26.6 191.831 27.656C191.031 28.68 190.631 29.864 190.631 31.208C190.631 33.032 191.351 34.472 192.791 35.528C194.263 36.584 196.391 37.512 199.175 38.312L202.055 39.128C205.031 39.96 207.351 41.064 209.015 42.44C210.679 43.784 211.511 45.608 211.511 47.912C211.511 49.608 211.031 51.112 210.071 52.424C209.111 53.704 207.767 54.712 206.039 55.448C204.343 56.184 202.359 56.552 200.087 56.552ZM200.087 59.72C197.591 59.72 195.335 59.336 193.319 58.568C191.335 57.768 189.687 56.664 188.375 55.256C187.095 53.816 186.263 52.12 185.879 50.168L187.271 49.784C187.591 51.512 188.311 53.016 189.431 54.296C190.583 55.544 192.071 56.52 193.895 57.224C195.719 57.928 197.783 58.28 200.087 58.28C202.711 58.28 204.999 57.848 206.951 56.984C208.935 56.088 210.471 54.872 211.559 53.336C212.679 51.768 213.239 49.96 213.239 47.912C213.239 45.192 212.295 43.016 210.407 41.384C208.519 39.752 205.863 38.44 202.439 37.448L199.607 36.632C197.271 35.96 195.479 35.224 194.231 34.424C192.983 33.624 192.359 32.552 192.359 31.208C192.359 29.64 193.095 28.392 194.567 27.464C196.039 26.504 197.895 26.024 200.135 26.024C202.311 26.024 204.103 26.472 205.511 27.368C206.919 28.264 207.719 29.432 207.911 30.872L206.519 31.256C206.455 30.136 205.831 29.224 204.647 28.52C203.495 27.816 201.991 27.464 200.135 27.464C198.375 27.464 196.871 27.8 195.623 28.472C194.407 29.144 193.799 30.024 193.799 31.112C193.799 32.104 194.359 32.904 195.479 33.512C196.631 34.12 198.135 34.696 199.991 35.24L202.727 36.056C206.599 37.208 209.559 38.712 211.607 40.568C213.655 42.392 214.679 44.872 214.679 48.008C214.679 50.28 214.055 52.312 212.807 54.104C211.591 55.864 209.879 57.24 207.671 58.232C205.495 59.224 202.967 59.72 200.087 59.72ZM224.814 59V20.408H226.254V59H224.814ZM218.478 59V20.408H219.918V59H218.478ZM221.646 59V20.408H223.086V59H221.646ZM227.982 21.848V20.408H247.134V21.848H227.982ZM227.982 25.016V23.576H247.134V25.016H227.982ZM227.982 28.184V26.744H247.134V28.184H227.982ZM227.982 37.256V35.816H244.398V37.256H227.982ZM227.982 40.424V38.984H244.398V40.424H227.982ZM227.982 43.592V42.152H244.398V43.592H227.982ZM227.982 52.664V51.224H247.134V52.664H227.982ZM227.982 55.832V54.392H247.134V55.832H227.982ZM227.982 59V57.56H247.134V59H227.982Z" fill="#AB1010"/>
<path d="M25 77H22V83H25V77Z" fill="#AB1010"/>
<path d="M28 74H25V86H28V74Z" fill="#AB1010"/>
<rect width="3" height="18" transform="matrix(-1 0 0 1 31 71)" fill="#AB1010"/>
<path d="M31 78H222V82H31V78Z" fill="#AB1010"/>
<rect x="222" y="71" width="3" height="18" fill="#AB1010"/>
<rect x="225" y="74" width="3" height="12" fill="#AB1010"/>
<path d="M231 77H228V83H231V77Z" fill="#AB1010"/>
</g>
<g filter="url(#filter1_d_36_2)">
<path d="M43.5 4.479C42.1823 4.479 41.1042 3.47123 41.1042 2.2395C41.1042 0.979782 42.1823 0 43.5 0C44.8177 0 45.8958 0.979782 45.8958 2.2395C45.8958 3.47123 44.8177 4.479 43.5 4.479ZM33.9466 3.55521C34.9948 3.55521 35.8333 4.36703 35.8333 5.34681C35.8333 6.35459 34.9948 7.13841 33.9466 7.13841C32.8685 7.13841 32 6.35459 32 5.34681C32 4.36703 32.8685 3.55521 33.9466 3.55521ZM53.1133 3.55521C54.1615 3.55521 55 4.36703 55 5.34681C55 6.35459 54.1615 7.13841 53.1133 7.13841C52.0352 7.13841 51.1667 6.35459 51.1667 5.34681C51.1667 4.36703 52.0352 3.55521 53.1133 3.55521ZM36.043 15.9285L34.4557 7.81026C34.9349 7.72628 35.3841 7.47434 35.7435 7.1944C36.7318 8.03421 37.9896 8.84603 39.1875 8.84603C40.625 8.84603 41.793 6.77449 42.6016 5.03888C42.8711 5.12286 43.2005 5.20684 43.5 5.20684C43.7995 5.20684 44.1289 5.12286 44.3984 5.03888C45.207 6.77449 46.375 8.84603 47.8125 8.84603C49.0104 8.84603 50.2682 8.03421 51.2565 7.1944C51.6159 7.47434 52.0651 7.72628 52.5443 7.81026L50.957 15.9285H36.043ZM35.7135 16.6283H51.2865V18H35.7135V16.6283Z" fill="#AB1010"/>
</g>
<defs>
<filter id="filter0_d_36_2" x="0" y="11" width="257" height="88" filterUnits="userSpaceOnUse" color-interpolation-filters="sRGB">
<feFlood flood-opacity="0" result="BackgroundImageFix"/>
<feColorMatrix in="SourceAlpha" type="matrix" values="0 0 0 0 0 0 0 0 0 0 0 0 0 0 0 0 0 0 127 0" result="hardAlpha"/>
<feOffset dx="2" dy="4"/>
<feGaussianBlur stdDeviation="3"/>
<feComposite in2="hardAlpha" operator="out"/>
<feColorMatrix type="matrix" values="0 0 0 0 0 0 0 0 0 0 0 0 0 0 0 0 0 0 0.71 0"/>
<feBlend mode="normal" in2="BackgroundImageFix" result="effect1_dropShadow_36_2"/>
<feBlend mode="normal" in="SourceGraphic" in2="effect1_dropShadow_36_2" result="shape"/>
</filter>
<filter id="filter1_d_36_2" x="31" y="0" width="29" height="25" filterUnits="userSpaceOnUse" color-interpolation-filters="sRGB">
<feFlood flood-opacity="0" result="BackgroundImageFix"/>
<feColorMatrix in="SourceAlpha" type="matrix" values="0 0 0 0 0 0 0 0 0 0 0 0 0 0 0 0 0 0 127 0" result="hardAlpha"/>
<feOffset dx="2" dy="4"/>
<feGaussianBlur stdDeviation="1.5"/>
<feComposite in2="hardAlpha" operator="out"/>
<feColorMatrix type="matrix" values="0 0 0 0 0 0 0 0 0 0 0 0 0 0 0 0 0 0 0.25 0"/>
<feBlend mode="normal" in2="BackgroundImageFix" result="effect1_dropShadow_36_2"/>
<feBlend mode="normal" in="SourceGraphic" in2="effect1_dropShadow_36_2" result="shape"/>
</filter>
</defs>
</svg>
